<svg width="17" height="18" viewBox="0 0 17 18" fill="none" xmlns="http://www.w3.org/2000/svg">
<path d="M5.47205 18C4.71309 18 4.00176 17.8543 3.33808 17.5622C2.67389 17.2705 2.09389 16.8766 1.59808 16.3802C1.10177 15.8844 0.711576 15.3044 0.426996 14.6402C0.142164 13.9763 0 13.272 0 12.528C0 11.7839 0.142164 11.0579 0.426744 10.394C0.711324 9.7303 1.10152 9.15005 1.59783 8.65398C2.09364 8.15818 2.67389 7.76748 3.33783 7.4829C4.00151 7.19832 4.71309 7.05615 5.4718 7.05615C6.23051 7.05615 6.94158 7.19832 7.60577 7.4829C8.26946 7.76748 8.84971 8.15792 9.34577 8.65398C9.84158 9.1503 10.2323 9.7303 10.5169 10.394C10.8014 11.0582 10.9436 11.7695 10.9436 12.528V17.9998H8.66721V12.528C8.66721 12.0758 8.58302 11.6525 8.4154 11.2583C8.24753 10.8643 8.01765 10.5218 7.72601 10.2296C7.43387 9.93775 7.09459 9.70812 6.70817 9.54024C6.32151 9.37262 5.90938 9.28843 5.47155 9.28843C5.03371 9.28843 4.62134 9.37262 4.23492 9.54024C3.84826 9.70812 3.50898 9.938 3.21709 10.2296C2.92495 10.5218 2.69507 10.8643 2.5277 11.2583C2.35982 11.6523 2.27588 12.0758 2.27588 12.528C2.27588 12.9802 2.35957 13.3782 2.5277 13.7646C2.69532 14.1515 2.9252 14.4905 3.21709 14.7824C3.50873 15.0746 3.84801 15.3044 4.23492 15.4718C4.62134 15.6397 5.03371 15.7236 5.47155 15.7236C5.61724 15.7236 5.75235 15.7163 5.87636 15.7017C6.00013 15.6873 6.12818 15.6654 6.2595 15.6362L6.7848 17.8467C6.12818 17.9491 5.69034 18 5.47155 18H5.47205Z" fill="#EFFB53"/>
<path d="M14.3361 18H12.0817V7.05615H14.3361V18Z" fill="#EFFB53"/>
<path d="M10.2413 2.99638C12.3707 2.58156 12.7816 2.17067 13.1964 0.0411873C13.2072 -0.0137291 13.2862 -0.0137291 13.2965 0.0411873C13.7113 2.17067 14.1222 2.58156 16.2517 2.99638C16.3066 3.00716 16.3066 3.0861 16.2517 3.0964C14.1222 3.51122 13.7113 3.92211 13.2965 6.05159C13.2857 6.10651 13.2067 6.10651 13.1964 6.05159C12.7816 3.92211 12.3707 3.51122 10.2413 3.0964C10.1863 3.08561 10.1863 3.00667 10.2413 2.99638Z" fill="#EFFB53"/>
</svg>
